<svg width="21" height="25" viewBox="0 0 21 25" fill="none" xmlns="http://www.w3.org/2000/svg">
<g clip-path="url(#clip0_2034_601)">
<path d="M10.4531 24.1992C11.2148 24.1992 11.6602 23.7305 11.6602 22.9336C11.6602 22.793 11.6484 22.6289 11.6484 22.4883L11.4844 13.8984L18.7969 18.293C19.0898 18.4688 19.3594 18.5391 19.6641 18.5391C20.3672 18.5391 20.8828 18.0234 20.8828 17.2969C20.8828 16.7461 20.6719 16.4414 20.0859 16.125L12.4336 12.1055L20.0859 8.07422C20.6719 7.76953 20.8828 7.45312 20.8828 6.91406C20.8828 6.19922 20.3789 5.67188 19.6641 5.67188C19.3594 5.67188 19.0898 5.74219 18.7969 5.91797L11.4844 10.3125L11.6484 1.72266C11.6484 1.57031 11.6602 1.41797 11.6602 1.26562C11.6602 0.46875 11.2148 0.0117188 10.4531 0.0117188C9.69141 0.0117188 9.23438 0.46875 9.23438 1.26562C9.23438 1.41797 9.24609 1.57031 9.24609 1.72266L9.41016 10.3125L2.08594 5.91797C1.79297 5.74219 1.52344 5.67188 1.20703 5.67188C0.503906 5.67188 0 6.1875 0 6.91406C0 7.45312 0.210938 7.76953 0.808594 8.07422L8.46094 12.1055L0.808594 16.125C0.210938 16.4414 0 16.7461 0 17.2969C0 18.0234 0.503906 18.5391 1.20703 18.5391C1.52344 18.5391 1.79297 18.4688 2.08594 18.293L9.41016 13.8984L9.24609 22.4883C9.24609 22.6289 9.23438 22.793 9.23438 22.9336C9.23438 23.7305 9.69141 24.1992 10.4531 24.1992Z" fill="#0072FF"/>
</g>
<defs>
<clipPath id="clip0_2034_601">
<rect width="20.8828" height="24.1992" fill="white"/>
</clipPath>
</defs>
</svg>
