<svg width="20" height="20" viewBox="0 0 20 20" fill="none" xmlns="http://www.w3.org/2000/svg">
<path d="M6.66734 18.3333H13.334C16.684 18.3333 17.284 16.9917 17.459 15.3583L18.084 8.69167C18.309 6.65833 17.7257 5 14.1673 5H5.834C2.27567 5 1.69234 6.65833 1.91734 8.69167L2.54234 15.3583C2.71734 16.9917 3.31734 18.3333 6.66734 18.3333Z" stroke="#FFC357" stroke-width="1.5" stroke-miterlimit="10" stroke-linecap="round" stroke-linejoin="round"/>
<path d="M6.66602 5.00033V4.33366C6.66602 2.85866 6.66602 1.66699 9.33268 1.66699H10.666C13.3327 1.66699 13.3327 2.85866 13.3327 4.33366V5.00033" stroke="#FFC357" stroke-width="1.5" stroke-miterlimit="10" stroke-linecap="round" stroke-linejoin="round"/>
<path d="M11.6673 10.8333V11.6667C11.6673 11.675 11.6673 11.675 11.6673 11.6833C11.6673 12.5917 11.659 13.3333 10.0007 13.3333C8.35065 13.3333 8.33398 12.6 8.33398 11.6917V10.8333C8.33398 10 8.33398 10 9.16732 10H10.834C11.6673 10 11.6673 10 11.6673 10.8333Z" stroke="#FFC357" stroke-width="1.5" stroke-miterlimit="10" stroke-linecap="round" stroke-linejoin="round"/>
<path d="M18.041 9.16699C16.116 10.567 13.916 11.4003 11.666 11.6837" stroke="#FFC357" stroke-width="1.5" stroke-miterlimit="10" stroke-linecap="round" stroke-linejoin="round"/>
<path d="M2.18359 9.3916C4.05859 10.6749 6.17526 11.4499 8.33359 11.6916" stroke="#FFC357" stroke-width="1.5" stroke-miterlimit="10" stroke-linecap="round" stroke-linejoin="round"/>
</svg>
