<svg width="60" height="60" viewBox="0 0 60 60" fill="none" xmlns="http://www.w3.org/2000/svg">
<path d="M5 25H55" stroke="#FFC357" stroke-width="3" stroke-miterlimit="10" stroke-linecap="round" stroke-linejoin="round"/>
<path d="M28.8707 51.2494H16.0957C7.22073 51.2494 4.9707 49.0494 4.9707 40.2744V19.7244C4.9707 11.7744 6.82078 9.22442 13.7958 8.82442C14.4958 8.79942 15.2707 8.77441 16.0957 8.77441H43.8707C52.7457 8.77441 54.9957 10.9744 54.9957 19.7494V30.7744" stroke="#FFC357" stroke-width="3" stroke-linecap="round" stroke-linejoin="round"/>
<path d="M15 40H25" stroke="#FFC357" stroke-width="3" stroke-miterlimit="10" stroke-linecap="round" stroke-linejoin="round"/>
<path d="M55 45C55 46.875 54.475 48.65 53.55 50.15C51.825 53.05 48.65 55 45 55C41.35 55 38.175 53.05 36.45 50.15C35.525 48.65 35 46.875 35 45C35 39.475 39.475 35 45 35C50.525 35 55 39.475 55 45Z" stroke="#FFC357" stroke-width="3" stroke-miterlimit="10" stroke-linecap="round" stroke-linejoin="round"/>
<path d="M41.1035 44.9988L43.5785 47.4738L48.9035 42.5488" stroke="#FFC357" stroke-width="3" stroke-linecap="round" stroke-linejoin="round"/>
</svg>
