<svg width="60" height="60" viewBox="0 0 60 60" fill="none" xmlns="http://www.w3.org/2000/svg">
<rect width="60" height="60" rx="20" fill="#4498FF"/>
<path d="M30 30C35.1777 30 39.375 25.8027 39.375 20.625C39.375 15.4473 35.1777 11.25 30 11.25C24.8223 11.25 20.625 15.4473 20.625 20.625C20.625 25.8027 24.8223 30 30 30Z" stroke="white" stroke-width="3" stroke-linecap="round" stroke-linejoin="round"/>
<path d="M13.8945 48.75C13.8945 41.4938 21.1133 35.625 30.0008 35.625C31.8008 35.625 33.5445 35.8687 35.1758 36.3187" stroke="white" stroke-width="3" stroke-linecap="round" stroke-linejoin="round"/>
<path d="M48.75 41.25C48.75 42.6562 48.3563 43.9875 47.6625 45.1125C47.2688 45.7875 46.7625 46.3875 46.1813 46.875C44.8688 48.0562 43.1437 48.75 41.25 48.75C38.5125 48.75 36.1312 47.2875 34.8375 45.1125C34.1437 43.9875 33.75 42.6562 33.75 41.25C33.75 38.8875 34.8375 36.7688 36.5625 35.4C37.8562 34.3688 39.4875 33.75 41.25 33.75C45.3938 33.75 48.75 37.1062 48.75 41.25Z" stroke="white" stroke-width="3" stroke-miterlimit="10" stroke-linecap="round" stroke-linejoin="round"/>
<path d="M38.3242 41.2501L40.1805 43.1063L44.1742 39.4126" stroke="white" stroke-width="3" stroke-linecap="round" stroke-linejoin="round"/>
</svg>
