<svg width="20" height="20" viewBox="0 0 20 20" fill="none" xmlns="http://www.w3.org/2000/svg">
<path d="M13.9166 15.8167H6.08325C5.73325 15.8167 5.34159 15.5417 5.22492 15.2083L1.77492 5.55834C1.28326 4.17501 1.85826 3.75001 3.04159 4.60001L6.29159 6.92501C6.83325 7.30001 7.44992 7.10834 7.68325 6.50001L9.14992 2.59167C9.61659 1.34167 10.3916 1.34167 10.8583 2.59167L12.3249 6.50001C12.5583 7.10834 13.1749 7.30001 13.7083 6.92501L16.7583 4.75001C18.0583 3.81667 18.6833 4.29168 18.1499 5.80001L14.7833 15.225C14.6583 15.5417 14.2666 15.8167 13.9166 15.8167Z" stroke="#FFB927" stroke-opacity="0.5" stroke-width="1.5" stroke-linecap="round" stroke-linejoin="round"/>
<path d="M5.41675 18.3333H14.5834" stroke="#FFB927" stroke-opacity="0.5" stroke-width="1.5" stroke-linecap="round" stroke-linejoin="round"/>
<path d="M7.91675 11.6667H12.0834" stroke="#FFB927" stroke-opacity="0.5" stroke-width="1.5" stroke-linecap="round" stroke-linejoin="round"/>
</svg>
