<svg width="20" height="20" viewBox="0 0 20 20" fill="none" xmlns="http://www.w3.org/2000/svg">
<path d="M4.44434 8.14813V6.29628C4.44434 3.23146 5.37026 0.740723 9.99989 0.740723C14.6295 0.740723 15.5554 3.23146 15.5554 6.29628V8.14813" stroke="#FFB927" stroke-width="1.5" stroke-linecap="round" stroke-linejoin="round"/>
<path d="M9.99938 16.0185C11.2778 16.0185 12.3142 14.9822 12.3142 13.7037C12.3142 12.4253 11.2778 11.3889 9.99938 11.3889C8.72095 11.3889 7.68457 12.4253 7.68457 13.7037C7.68457 14.9822 8.72095 16.0185 9.99938 16.0185Z" stroke="#FFB927" stroke-width="1.5" stroke-linecap="round" stroke-linejoin="round"/>
<path d="M14.6291 19.2593H5.36986C1.66616 19.2593 0.740234 18.3334 0.740234 14.6297V12.7778C0.740234 9.07412 1.66616 8.14819 5.36986 8.14819H14.6291C18.3328 8.14819 19.2588 9.07412 19.2588 12.7778V14.6297C19.2588 18.3334 18.3328 19.2593 14.6291 19.2593Z" stroke="#FFB927" stroke-width="1.5" stroke-linecap="round" stroke-linejoin="round"/>
</svg>
