<svg width="20" height="20" viewBox="0 0 20 20" fill="none" xmlns="http://www.w3.org/2000/svg">
<path d="M13.15 1.66669H6.85002C3.70002 1.66669 2.91669 2.50835 2.91669 5.86669V15.25C2.91669 17.4667 4.13335 17.9917 5.60835 16.4084L5.61669 16.4C6.30002 15.675 7.34169 15.7334 7.93335 16.525L8.77502 17.65C9.45002 18.5417 10.5417 18.5417 11.2167 17.65L12.0584 16.525C12.6584 15.725 13.7 15.6667 14.3834 16.4C15.8667 17.9834 17.075 17.4584 17.075 15.2417V5.86669C17.0834 2.50835 16.3 1.66669 13.15 1.66669ZM6.48335 10C6.02502 10 5.65002 9.62502 5.65002 9.16669C5.65002 8.70835 6.02502 8.33335 6.48335 8.33335C6.94169 8.33335 7.31669 8.70835 7.31669 9.16669C7.31669 9.62502 6.94169 10 6.48335 10ZM6.48335 6.66669C6.02502 6.66669 5.65002 6.29169 5.65002 5.83335C5.65002 5.37502 6.02502 5.00002 6.48335 5.00002C6.94169 5.00002 7.31669 5.37502 7.31669 5.83335C7.31669 6.29169 6.94169 6.66669 6.48335 6.66669ZM13.525 9.79169H8.94169C8.60002 9.79169 8.31669 9.50835 8.31669 9.16669C8.31669 8.82502 8.60002 8.54169 8.94169 8.54169H13.525C13.8667 8.54169 14.15 8.82502 14.15 9.16669C14.15 9.50835 13.8667 9.79169 13.525 9.79169ZM13.525 6.45835H8.94169C8.60002 6.45835 8.31669 6.17502 8.31669 5.83335C8.31669 5.49169 8.60002 5.20835 8.94169 5.20835H13.525C13.8667 5.20835 14.15 5.49169 14.15 5.83335C14.15 6.17502 13.8667 6.45835 13.525 6.45835Z" fill="white"/>
</svg>
