<svg width="20" height="20" viewBox="0 0 20 20" fill="none" xmlns="http://www.w3.org/2000/svg">
<path d="M17.8928 15.2748C17.8928 15.5748 17.8295 15.8832 17.6949 16.1832C17.5603 16.4832 17.3862 16.7665 17.1566 17.0332C16.7687 17.4832 16.3412 17.8082 15.8583 18.0165C15.3833 18.2248 14.8687 18.3332 14.3145 18.3332C13.507 18.3332 12.6441 18.1332 11.7337 17.7248C10.8233 17.3165 9.91284 16.7665 9.01034 16.0748C8.09992 15.3748 7.237 14.5998 6.41367 13.7415C5.59825 12.8748 4.862 11.9665 4.20492 11.0165C3.55575 10.0665 3.03325 9.1165 2.65325 8.17484C2.27325 7.22484 2.08325 6.3165 2.08325 5.44984C2.08325 4.88317 2.17825 4.3415 2.36825 3.8415C2.55825 3.33317 2.85909 2.8665 3.27867 2.44984C3.78534 1.92484 4.3395 1.6665 4.92534 1.6665C5.147 1.6665 5.36867 1.7165 5.56659 1.8165C5.77242 1.9165 5.9545 2.0665 6.097 2.28317L7.93367 5.00817C8.07617 5.2165 8.17909 5.40817 8.25034 5.5915C8.32159 5.7665 8.36117 5.9415 8.36117 6.09984C8.36117 6.29984 8.30575 6.49984 8.19492 6.6915C8.092 6.88317 7.94159 7.08317 7.75159 7.28317L7.14992 7.9415C7.06284 8.03317 7.02325 8.1415 7.02325 8.27484C7.02325 8.3415 7.03117 8.39984 7.047 8.4665C7.07075 8.53317 7.0945 8.58317 7.11034 8.63317C7.25284 8.90817 7.49825 9.2665 7.84659 9.69984C8.20284 10.1332 8.58284 10.5748 8.9945 11.0165C9.422 11.4582 9.83367 11.8665 10.2533 12.2415C10.6649 12.6082 11.0053 12.8582 11.2745 13.0082C11.3141 13.0248 11.3616 13.0498 11.417 13.0748C11.4803 13.0998 11.5437 13.1082 11.6149 13.1082C11.7495 13.1082 11.8524 13.0582 11.9395 12.9665L12.5412 12.3415C12.7391 12.1332 12.9291 11.9748 13.1112 11.8748C13.2933 11.7582 13.4753 11.6998 13.6733 11.6998C13.8237 11.6998 13.982 11.7332 14.1562 11.8082C14.3303 11.8832 14.5124 11.9915 14.7103 12.1332L17.3308 14.0915C17.5366 14.2415 17.6791 14.4165 17.7662 14.6248C17.8453 14.8332 17.8928 15.0415 17.8928 15.2748Z" stroke="#07202F" stroke-width="1.5" stroke-miterlimit="10"/>
<path d="M15.1458 7.50016C15.1458 7.00016 14.7737 6.2335 14.2196 5.6085C13.7129 5.0335 13.04 4.5835 12.375 4.5835" stroke="#07202F" stroke-width="1.5" stroke-linecap="round" stroke-linejoin="round"/>
<path d="M17.9167 7.49984C17.9167 4.27484 15.4387 1.6665 12.375 1.6665" stroke="#07202F" stroke-width="1.5" stroke-linecap="round" stroke-linejoin="round"/>
</svg>
