<svg width="50" height="50" viewBox="0 0 50 50" fill="none" xmlns="http://www.w3.org/2000/svg">
<path d="M7.83519 9.817C7.98237 9.66982 8.05596 9.59623 8.12079 9.53666C9.71487 8.07191 12.1651 8.07191 13.7592 9.53666C13.824 9.59623 13.8976 9.66982 14.0448 9.817L17.0827 12.8549C18.7536 14.5258 19.2315 17.0493 18.2873 19.2155C17.343 21.3817 17.8209 23.9051 19.4918 25.576L24.4852 30.5694C26.1561 32.2403 28.6796 32.7182 30.8458 31.774C33.012 30.8297 35.5354 31.3076 37.2063 32.9786L40.2443 36.0165C40.3914 36.1637 40.465 36.2372 40.5246 36.3021C41.9893 37.8962 41.9893 40.3464 40.5246 41.9405C40.465 42.0053 40.3914 42.0789 40.2443 42.2261L38.3977 44.0726C36.894 45.5763 34.7262 46.2076 32.6502 45.7463C18.5052 42.6029 7.45831 31.556 4.31498 17.411C3.85365 15.3351 4.48491 13.1673 5.98865 11.6635L7.83519 9.817Z" fill="#FFB927" fill-opacity="0.1"/>
<path d="M38.2583 23.3176V22.139C38.2583 21.9627 38.2583 21.8745 38.2572 21.7999C38.1765 16.1637 33.627 11.6142 27.9908 11.5335C27.9162 11.5324 27.828 11.5324 27.6517 11.5324H26.4732M45.6242 24.7907V22.7283C45.6242 20.9686 45.6242 20.0888 45.5578 19.3472C44.8388 11.3166 38.4744 4.95215 30.4438 4.23315C29.7022 4.16675 28.8223 4.16675 27.0627 4.16675L25.0003 4.16675M18.2873 19.2155C17.343 21.3817 17.8209 23.9051 19.4918 25.576L24.4852 30.5694C26.1561 32.2403 28.6796 32.7182 30.8458 31.774C33.012 30.8297 35.5354 31.3076 37.2063 32.9786L40.2443 36.0165C40.3914 36.1637 40.465 36.2372 40.5246 36.3021C41.9893 37.8962 41.9893 40.3464 40.5246 41.9405C40.465 42.0053 40.3914 42.0789 40.2443 42.2261L38.3977 44.0726C36.894 45.5763 34.7262 46.2076 32.6502 45.7463C18.5052 42.6029 7.45831 31.556 4.31498 17.411C3.85365 15.3351 4.48491 13.1673 5.98865 11.6635L7.83519 9.817C7.98237 9.66982 8.05596 9.59623 8.12079 9.53666C9.71487 8.07191 12.1651 8.07191 13.7592 9.53666C13.824 9.59623 13.8976 9.66982 14.0448 9.817L17.0827 12.8549C18.7536 14.5258 19.2315 17.0493 18.2873 19.2155Z" stroke="#FFC357" stroke-width="2" stroke-linecap="round"/>
</svg>
