<svg width="50" height="50" viewBox="0 0 50 50" fill="none" xmlns="http://www.w3.org/2000/svg">
<path d="M36.4532 38.5107L42.9752 18.9454C45.576 11.1433 46.8764 7.24225 44.8171 5.18303C42.7578 3.12382 38.8566 4.42416 31.0543 7.02485L11.6142 13.5046C7.27705 14.9503 5.10849 15.6731 4.45025 17.2634C4.29554 17.6371 4.202 18.0333 4.17322 18.4368C4.05076 20.1535 5.66712 21.7698 8.89983 25.0024L9.48864 25.5912C10.0193 26.1218 10.2846 26.3871 10.4851 26.6824C10.8807 27.2649 11.1052 27.9465 11.1333 28.65C11.1475 29.0067 11.0918 29.3777 10.9804 30.1198C10.5727 32.8359 10.3689 34.194 10.609 35.2391C11.0877 37.3222 12.7001 38.9573 14.7763 39.4653C15.8179 39.7201 17.1788 39.5354 19.9005 39.166L20.0493 39.1458C20.8166 39.0417 21.2002 38.9897 21.5686 39.0119C22.2372 39.0522 22.8831 39.27 23.4396 39.6428C23.7462 39.8482 24.0199 40.1219 24.5674 40.6694L25.0909 41.1929C28.2373 44.3392 29.8105 45.9123 31.4795 45.8304C31.9395 45.8078 32.3915 45.7011 32.8131 45.5156C34.3425 44.8425 35.046 42.7319 36.4532 38.5107Z" fill="#FFB927" fill-opacity="0.1" stroke="#FFC357" stroke-width="2"/>
<path d="M12.5 37.5L43.75 6.25" stroke="#FFC357" stroke-width="2" stroke-linecap="round"/>
</svg>
