<svg width="50" height="50" viewBox="0 0 50 50" fill="none" xmlns="http://www.w3.org/2000/svg">
<path d="M29.2888 42.4677C25.7994 45.9616 18.3995 48.9823 12.3937 45.2662C12.0595 45.0593 11.8924 44.956 11.766 44.9059C11.5244 44.8101 11.3412 44.7823 11.0821 44.8024C10.9466 44.8129 10.7931 44.8527 10.4861 44.9324C8.554 45.4338 7.58795 45.6845 6.89199 45.5427C5.68406 45.2966 4.74003 44.3513 4.4942 43.1419C4.35256 42.445 4.60295 41.4778 5.10373 39.5433C5.18333 39.2358 5.22313 39.082 5.23356 38.9459C5.25344 38.6865 5.22519 38.5009 5.12905 38.2592C5.07861 38.1324 4.97548 37.9662 4.76923 37.6339C1.04503 31.6336 3.92724 24.3595 7.56529 20.7168C8.27591 20.0053 9.03884 19.3781 9.84168 18.8352C15.8161 14.7948 24.0007 15.422 29.2888 20.7168C34.5328 25.9674 35.1926 34.0698 31.2683 40.038C30.7035 40.8971 30.0436 41.712 29.2888 42.4677Z" fill="#FFB927" fill-opacity="0.1"/>
<path d="M31.2683 40.038C35.1926 34.0698 34.5328 25.9674 29.2888 20.7168C24.0007 15.422 15.8161 14.7948 9.84168 18.8352M31.2683 40.038C30.7035 40.8971 30.0436 41.712 29.2888 42.4677C25.7994 45.9616 18.3995 48.9823 12.3937 45.2662C12.0595 45.0593 11.8924 44.956 11.766 44.9059C11.5244 44.8101 11.3412 44.7823 11.0822 44.8024C10.9466 44.8129 10.7931 44.8527 10.4861 44.9324C8.554 45.4338 7.58795 45.6845 6.89199 45.5427C5.68406 45.2966 4.74003 44.3513 4.4942 43.1419C4.35256 42.445 4.60295 41.4778 5.10373 39.5433C5.18333 39.2358 5.22313 39.082 5.23356 38.9459C5.25344 38.6865 5.22519 38.5009 5.12905 38.2592C5.07861 38.1324 4.97548 37.9662 4.76923 37.6339C1.04503 31.6336 3.92724 24.3595 7.56529 20.7168C8.27591 20.0053 9.03884 19.3781 9.84168 18.8352M31.2683 40.038L31.5909 39.9828C32.9566 39.6548 34.3049 39.1115 35.5999 38.3102C36.0057 38.0591 36.2086 37.9335 36.3621 37.8727C36.6554 37.7564 36.8779 37.7227 37.1925 37.7471C37.3571 37.7598 37.5435 37.8082 37.9163 37.9049C40.2624 38.5138 41.4355 38.8182 42.2806 38.646C43.7473 38.3471 44.8937 37.1994 45.1922 35.7307C45.3642 34.8846 45.0601 33.71 44.452 31.361C44.3554 30.9876 44.307 30.8009 44.2944 30.6356C44.2702 30.3206 44.3045 30.0953 44.4213 29.8018C44.4825 29.6478 44.6078 29.446 44.8582 29.0425C49.3805 21.7564 45.8806 12.9235 41.463 8.50034C34.1788 1.20692 22.3687 1.20692 15.0844 8.50034C12.1739 11.4145 10.4263 15.0522 9.84168 18.8352" stroke="#FFC357" stroke-width="2"/>
<path d="M22 32C22 33.1046 22.8954 34 24 34C25.1046 34 26 33.1046 26 32C26 30.8954 25.1046 30 24 30C22.8954 30 22 30.8954 22 32Z" fill="#FFC357"/>
<path d="M16 32C16 33.1046 16.8954 34 18 34C19.1046 34 20 33.1046 20 32C20 30.8954 19.1046 30 18 30C16.8954 30 16 30.8954 16 32Z" fill="#FFC357"/>
<path d="M10 32C10 33.1046 10.8954 34 12 34C13.1046 34 14 33.1046 14 32C14 30.8954 13.1046 30 12 30C10.8954 30 10 30.8954 10 32Z" fill="#FFC357"/>
</svg>
