<svg width="70" height="70" viewBox="0 0 70 70" fill="none" xmlns="http://www.w3.org/2000/svg">
<path d="M29.4875 32.521H21.7583C19.9208 32.521 18.4333 34.0084 18.4333 35.8459V50.7792H29.4875V32.521V32.521Z" stroke="#FFB927" stroke-width="3" stroke-miterlimit="10" stroke-linecap="round" stroke-linejoin="round"/>
<path d="M37.2204 19.25H32.787C30.9495 19.25 29.462 20.7375 29.462 22.575V50.7501H40.5162V22.575C40.5162 20.7375 39.0579 19.25 37.2204 19.25Z" stroke="#FFB927" stroke-width="3" stroke-miterlimit="10" stroke-linecap="round" stroke-linejoin="round"/>
<path d="M48.2654 37.4792H40.5363V50.7502H51.5904V40.8043C51.5613 38.9668 50.0737 37.4792 48.2654 37.4792Z" stroke="#FFB927" stroke-width="3" stroke-miterlimit="10" stroke-linecap="round" stroke-linejoin="round"/>
<path d="M26.25 64.1666H43.75C58.3334 64.1666 64.1667 58.3332 64.1667 43.7499V26.2499C64.1667 11.6666 58.3334 5.83325 43.75 5.83325H26.25C11.6667 5.83325 5.83337 11.6666 5.83337 26.2499V43.7499C5.83337 58.3332 11.6667 64.1666 26.25 64.1666Z" stroke="#FFB927" stroke-width="3" stroke-linecap="round" stroke-linejoin="round"/>
</svg>
