<svg width="70" height="70" viewBox="0 0 70 70" fill="none" xmlns="http://www.w3.org/2000/svg">
<path d="M51.5278 5.83325H18.4722C17.5694 5.83325 17.118 5.83325 16.7374 5.86819C12.5072 6.25648 9.15339 9.77526 8.7833 14.2135C8.75 14.6128 8.75 15.0864 8.75 16.0336V59.0909C8.75 61.6358 11.8379 62.7158 13.2933 60.6798C14.3029 59.2675 16.3221 59.2675 17.3317 60.6798L18.5938 62.4453C20.2344 64.7404 23.5156 64.7404 25.1563 62.4453C26.7969 60.1502 30.0781 60.1502 31.7188 62.4453C33.3594 64.7404 36.6406 64.7404 38.2813 62.4453C39.9219 60.1502 43.2031 60.1502 44.8438 62.4453C46.4844 64.7404 49.7656 64.7404 51.4063 62.4453L52.6683 60.6798C53.6779 59.2675 55.6971 59.2675 56.7067 60.6798C58.1621 62.7158 61.25 61.6359 61.25 59.0909V16.0336C61.25 15.0864 61.25 14.6128 61.2167 14.2135C60.8466 9.77526 57.4928 6.25648 53.2626 5.86819C52.882 5.83325 52.4306 5.83325 51.5278 5.83325Z" stroke="#FFB927" stroke-width="3"/>
<path d="M21.875 45.2083H48.125" stroke="#FFB927" stroke-width="3" stroke-linecap="round"/>
<path d="M40.8334 23.3333L29.1668 35M29.1667 23.3333L40.8334 34.9999" stroke="#FFB927" stroke-width="3" stroke-linecap="round"/>
</svg>
