<svg width="70" height="70" viewBox="0 0 70 70" fill="none" xmlns="http://www.w3.org/2000/svg">
<path d="M59.7917 32.9582V20.5333C59.7917 8.77911 57.05 5.83325 46.025 5.83325H23.975C12.95 5.83325 10.2084 8.77911 10.2084 20.5333V53.3749C10.2084 61.1332 14.4667 62.9708 19.6292 57.4291L19.6583 57.3999C22.05 54.8624 25.6958 55.0665 27.7667 57.8374L30.7125 61.7749" stroke="#FFB927" stroke-width="3" stroke-linecap="round" stroke-linejoin="round"/>
<path d="M23.3334 20.4167H46.6667" stroke="#FFB927" stroke-width="3" stroke-linecap="round" stroke-linejoin="round"/>
<path d="M26.25 32.0833H43.75" stroke="#FFB927" stroke-width="3" stroke-linecap="round" stroke-linejoin="round"/>
<path d="M53.1154 43.08L42.7905 53.405C42.3821 53.8133 42.0029 54.5717 41.9154 55.1258L41.3612 59.0633C41.1571 60.4925 42.1488 61.4842 43.5779 61.28L47.5154 60.7259C48.0696 60.6384 48.8571 60.2591 49.2363 59.8508L59.5613 49.5259C61.3405 47.7467 62.1863 45.6759 59.5613 43.0509C56.9655 40.455 54.8946 41.3008 53.1154 43.08Z" stroke="#FFB927" stroke-width="3" stroke-miterlimit="10" stroke-linecap="round" stroke-linejoin="round"/>
<path d="M51.6227 44.5674C52.4977 47.7174 54.9477 50.1674 58.0977 51.0424" stroke="#FFB927" stroke-width="3" stroke-miterlimit="10" stroke-linecap="round" stroke-linejoin="round"/>
</svg>
