<svg width="19" height="16" viewBox="0 0 19 16" fill="none" xmlns="http://www.w3.org/2000/svg">
<path d="M0.997402 7.50491C1.03802 7.4846 1.07866 7.4653 1.11826 7.44702C1.80675 7.12816 2.50438 6.82961 3.20099 6.53106C3.23856 6.53106 3.30151 6.48739 3.33705 6.47318C3.39087 6.44982 3.4447 6.42749 3.49852 6.40413C3.60209 6.35945 3.70568 6.31578 3.80824 6.2711C4.01539 6.18275 4.22152 6.09442 4.42868 6.00607C4.84197 5.82938 5.25526 5.65269 5.66856 5.47499C6.49515 5.1216 7.32278 4.76718 8.14937 4.4138C8.97596 4.06042 9.80356 3.70602 10.6302 3.35264C11.4567 2.99926 12.2843 2.64486 13.1109 2.29148C13.9375 1.9381 14.7652 1.5837 15.5917 1.23032C15.7755 1.15111 15.9746 1.03332 16.1716 0.99879C16.3371 0.969341 16.4985 0.912484 16.6651 0.881004C16.9809 0.821092 17.3292 0.796716 17.6318 0.927712C17.7364 0.973408 17.8329 1.03737 17.9131 1.11759C18.2969 1.49738 18.2431 2.12089 18.1619 2.65503C17.5963 6.37774 17.0307 10.1015 16.464 13.8242C16.3868 14.335 16.2812 14.8955 15.8781 15.2184C15.5369 15.4916 15.0515 15.522 14.6301 15.4063C14.2087 15.2895 13.837 15.0448 13.4725 14.8041C11.9604 13.8028 10.4474 12.8016 8.93534 11.8003C8.57587 11.5627 8.17578 11.252 8.17984 10.8204C8.18187 10.5604 8.33722 10.3289 8.49564 10.1228C9.80965 8.40865 11.7055 7.23073 13.116 5.59582C13.3151 5.36531 13.4714 4.94897 13.1983 4.81595C13.0358 4.73674 12.8489 4.84436 12.7007 4.94692C10.8363 6.24165 8.97292 7.53739 7.10851 8.83211C6.50025 9.25454 5.86253 9.68916 5.12936 9.79274C4.47337 9.88616 3.81332 9.70338 3.17865 9.51653C2.64655 9.36015 2.11544 9.19971 1.58638 9.03419C1.30509 8.94686 1.01467 8.85242 0.797358 8.6544C0.580047 8.45639 0.455161 8.12333 0.586157 7.85931C0.66841 7.69378 0.827842 7.58919 0.995394 7.50389L0.997402 7.50491Z" fill="white"/>
</svg>
