<svg width="20" height="20" viewBox="0 0 20 20" fill="none" xmlns="http://www.w3.org/2000/svg">
<path d="M17.0833 7.91669C18.3333 7.91669 18.3333 8.33335 18.3333 9.16669V10.8334C18.3333 11.6667 18.3333 12.0834 17.0833 12.0834" stroke="#FFB927" stroke-opacity="0.5" stroke-width="1.5" stroke-linecap="round" stroke-linejoin="round"/>
<path d="M8.33325 6.66669L6.75825 8.75002C6.43325 9.30835 6.83325 10 7.47492 10H9.39159C10.0333 10 10.4333 10.6917 10.1166 11.25L8.33325 13.3334" stroke="#FFB927" stroke-opacity="0.5" stroke-width="1.5" stroke-linecap="round" stroke-linejoin="round"/>
<path d="M5.83341 15.8334C2.50008 15.8334 1.66675 15 1.66675 11.6667V8.33335C1.66675 5.00002 2.50008 4.16669 5.83341 4.16669" stroke="#FFB927" stroke-opacity="0.5" stroke-width="1.5" stroke-linecap="round" stroke-linejoin="round"/>
<path d="M10.8333 4.16669C14.1666 4.16669 14.9999 5.00002 14.9999 8.33335V11.6667C14.9999 15 14.1666 15.8334 10.8333 15.8334" stroke="#FFB927" stroke-opacity="0.5" stroke-width="1.5" stroke-linecap="round" stroke-linejoin="round"/>
</svg>
