<svg width="60" height="60" viewBox="0 0 60 60" fill="none" xmlns="http://www.w3.org/2000/svg">
<rect width="60" height="60" rx="20" fill="#4498FF"/>
<path d="M23.2129 29.9999L27.7316 34.5374L36.7879 25.4624" stroke="white" stroke-width="3" stroke-linecap="round" stroke-linejoin="round"/>
<path d="M27.6566 12.0938C28.9504 10.9876 31.0691 10.9876 32.3816 12.0938L35.3441 14.6438C35.9066 15.1313 36.9566 15.5251 37.7066 15.5251H40.8941C42.8816 15.5251 44.5129 17.1563 44.5129 19.1438V22.3313C44.5129 23.0626 44.9066 24.1313 45.3941 24.6938L47.9441 27.6563C49.0504 28.9501 49.0504 31.0688 47.9441 32.3813L45.3941 35.3438C44.9066 35.9063 44.5129 36.9563 44.5129 37.7063V40.8938C44.5129 42.8813 42.8816 44.5126 40.8941 44.5126H37.7066C36.9754 44.5126 35.9066 44.9063 35.3441 45.3938L32.3816 47.9438C31.0879 49.0501 28.9691 49.0501 27.6566 47.9438L24.6941 45.3938C24.1316 44.9063 23.0816 44.5126 22.3316 44.5126H19.0879C17.1004 44.5126 15.4691 42.8813 15.4691 40.8938V37.6876C15.4691 36.9563 15.0754 35.9063 14.6066 35.3438L12.0754 32.3626C10.9879 31.0688 10.9879 28.9688 12.0754 27.6751L14.6066 24.6938C15.0754 24.1313 15.4691 23.0813 15.4691 22.3501V19.1251C15.4691 17.1376 17.1004 15.5063 19.0879 15.5063H22.3316C23.0629 15.5063 24.1316 15.1126 24.6941 14.6251L27.6566 12.0938Z" stroke="white" stroke-width="3" stroke-linecap="round" stroke-linejoin="round"/>
</svg>
