<svg width="22" height="22" viewBox="0 0 22 22" fill="none" xmlns="http://www.w3.org/2000/svg">
<path d="M8.19824 13.75L9.76074 15.2778L13.9274 11.2037" stroke="#FFB927" stroke-width="1.5" stroke-linecap="round" stroke-linejoin="round"/>
<path d="M8.91634 4.88889H13.083C15.1663 4.88889 15.1663 3.87037 15.1663 2.85186C15.1663 0.814819 14.1247 0.814819 13.083 0.814819H8.91634C7.87467 0.814819 6.83301 0.814819 6.83301 2.85186C6.83301 4.88889 7.87467 4.88889 8.91634 4.88889Z" stroke="#FFB927" stroke-width="1.5" stroke-miterlimit="10" stroke-linecap="round" stroke-linejoin="round"/>
<path d="M15.1667 2.87219C18.6354 3.05553 20.375 4.3083 20.375 8.96293V15.074C20.375 19.1481 19.3333 21.1852 14.125 21.1852H7.875C2.66667 21.1852 1.625 19.1481 1.625 15.074V8.96293C1.625 4.31849 3.36458 3.05553 6.83333 2.87219" stroke="#FFB927" stroke-width="1.5" stroke-miterlimit="10" stroke-linecap="round" stroke-linejoin="round"/>
</svg>
