<svg width="21" height="20" viewBox="0 0 21 20" fill="none" xmlns="http://www.w3.org/2000/svg">
<path d="M15.0811 15.4046L17.6899 7.57843C18.7302 4.45761 19.2504 2.89719 18.4266 2.07351C17.6029 1.24982 16.0424 1.76996 12.9215 2.81023L5.14548 5.40214C3.41063 5.98041 2.5432 6.26954 2.2799 6.90563C2.21802 7.05514 2.18061 7.21362 2.16909 7.37501C2.12011 8.0617 2.76665 8.70822 4.05974 10.0013L4.29526 10.2368C4.50751 10.449 4.61363 10.5551 4.69386 10.6733C4.85208 10.9062 4.94189 11.1789 4.95311 11.4603C4.9588 11.603 4.93653 11.7514 4.89197 12.0482C4.7289 13.1347 4.64736 13.6779 4.74342 14.0959C4.93488 14.9292 5.57983 15.5832 6.41031 15.7864C6.82696 15.8883 7.37131 15.8145 8.46 15.6667L8.51953 15.6586C8.82643 15.617 8.97989 15.5962 9.12723 15.605C9.39469 15.6212 9.65303 15.7083 9.87564 15.8574C9.99828 15.9396 10.1078 16.0491 10.3268 16.2681L10.5362 16.4774C11.7947 17.736 12.424 18.3652 13.0916 18.3324C13.2756 18.3234 13.4564 18.2807 13.625 18.2065C14.2368 17.9373 14.5182 17.093 15.0811 15.4046Z" stroke="white" stroke-width="1.5"/>
<path d="M5.5 15L18 2.5" stroke="white" stroke-width="1.5" stroke-linecap="round"/>
</svg>
