<svg width="18" height="18" viewBox="0 0 18 18" fill="none" xmlns="http://www.w3.org/2000/svg">
<path d="M1.42033 4.14147C1.03851 3.78707 0.848633 3.3484 0.848633 2.82644C0.848633 2.30449 1.03953 1.8465 1.42033 1.49109C1.80215 1.13669 2.29364 0.958984 2.89581 0.958984C3.49798 0.958984 3.97018 1.13669 4.35098 1.49109C4.7328 1.84549 4.92268 2.29129 4.92268 2.82644C4.92268 3.3616 4.73178 3.78707 4.35098 4.14147C3.96917 4.49587 3.48478 4.67358 2.89581 4.67358C2.30684 4.67358 1.80215 4.49587 1.42033 4.14147ZM4.6018 6.17444V17.04H1.1685V6.17444H4.6018Z" fill="white"/>
<path d="M16.0311 7.24786C16.7795 8.06023 17.1532 9.17524 17.1532 10.5949V16.8481H13.8925V11.0356C13.8925 10.3197 13.7067 9.76319 13.3361 9.36715C12.9654 8.97112 12.4658 8.77208 11.8403 8.77208C11.2148 8.77208 10.7151 8.9701 10.3445 9.36715C9.97383 9.76319 9.788 10.3197 9.788 11.0356V16.8481H6.50806V6.14406H9.788V7.56368C10.1201 7.09047 10.5679 6.71677 11.1305 6.44158C11.693 6.16639 12.3257 6.0293 13.0294 6.0293C14.2825 6.0293 15.2837 6.43548 16.0311 7.24786Z" fill="white"/>
</svg>
