<svg width="20" height="20" viewBox="0 0 20 20" fill="none" xmlns="http://www.w3.org/2000/svg">
<path d="M11.9583 1.66669H8.04167C7.17501 1.66669 6.46667 2.36669 6.46667 3.23335V4.01669C6.46667 4.88335 7.16667 5.58335 8.03334 5.58335H11.9583C12.825 5.58335 13.525 4.88335 13.525 4.01669V3.23335C13.5333 2.36669 12.825 1.66669 11.9583 1.66669Z" fill="white"/>
<path d="M14.3666 4.01665C14.3666 5.34165 13.2833 6.42498 11.9583 6.42498H8.04164C6.71664 6.42498 5.63331 5.34165 5.63331 4.01665C5.63331 3.54998 5.1333 3.25832 4.71664 3.47498C3.54164 4.09998 2.74164 5.34165 2.74164 6.76665V14.6083C2.74164 16.6583 4.41664 18.3333 6.46664 18.3333H13.5333C15.5833 18.3333 17.2583 16.6583 17.2583 14.6083V6.76665C17.2583 5.34165 16.4583 4.09998 15.2833 3.47498C14.8666 3.25832 14.3666 3.54998 14.3666 4.01665ZM12.7833 10.6083L9.44997 13.9416C9.32497 14.0666 9.16664 14.125 9.00831 14.125C8.84997 14.125 8.69164 14.0666 8.56664 13.9416L7.31664 12.6916C7.07497 12.45 7.07497 12.05 7.31664 11.8083C7.5583 11.5666 7.95831 11.5666 8.19997 11.8083L9.00831 12.6166L11.9 9.72498C12.1416 9.48332 12.5416 9.48332 12.7833 9.72498C13.025 9.96665 13.025 10.3666 12.7833 10.6083Z" fill="white"/>
</svg>
