<svg width="40" height="40" viewBox="0 0 40 40" fill="none" xmlns="http://www.w3.org/2000/svg">
<path d="M38.3333 16.666C38.3641 17.8778 38.3333 18.4231 38.3333 19.9993C38.3333 26.2847 38.3333 29.4274 36.3807 31.3801C34.4281 33.3327 31.2854 33.3327 25 33.3327H18.3333C12.0479 33.3327 8.90524 33.3327 6.95262 31.3801C5 29.4274 5 26.2847 5 19.9993C5 13.714 5 10.5713 6.95262 8.61864C8.90524 6.66602 12.0479 6.66602 18.3333 6.66602H23.3333" stroke="white" stroke-width="1.5" stroke-linecap="round"/>
<path d="M11.668 13.334L15.2661 16.3325C18.3272 18.8833 19.8577 20.1588 21.668 20.1588C23.4782 20.1588 25.0087 18.8833 28.0698 16.3324" stroke="white" stroke-width="1.5" stroke-linecap="round"/>
<circle cx="33.332" cy="8.33398" r="5" stroke="white" stroke-width="1.5"/>
</svg>
