<svg width="40" height="40" viewBox="0 0 40 40" fill="none" xmlns="http://www.w3.org/2000/svg">
<path d="M18.334 11.668L13.334 28.3346" stroke="white" stroke-width="1.5" stroke-linecap="round" stroke-linejoin="round"/>
<path d="M26.666 11.668L21.666 28.3346" stroke="white" stroke-width="1.5" stroke-linecap="round" stroke-linejoin="round"/>
<path d="M29.9993 16.668H11.666" stroke="white" stroke-width="1.5" stroke-linecap="round" stroke-linejoin="round"/>
<path d="M28.3333 23.332H10" stroke="white" stroke-width="1.5" stroke-linecap="round" stroke-linejoin="round"/>
<path d="M3.33398 19.9987C3.33398 12.142 3.33398 8.21358 5.77476 5.77281C8.21554 3.33203 12.1439 3.33203 20.0007 3.33203C27.8574 3.33203 31.7858 3.33203 34.2265 5.77281C36.6673 8.21358 36.6673 12.142 36.6673 19.9987C36.6673 27.8554 36.6673 31.7838 34.2265 34.2246C31.7858 36.6654 27.8574 36.6654 20.0007 36.6654C12.1439 36.6654 8.21554 36.6654 5.77476 34.2246C3.33398 31.7838 3.33398 27.8554 3.33398 19.9987Z" stroke="white" stroke-width="1.5"/>
</svg>
