<svg width="20" height="20" viewBox="0 0 20 20" fill="none" xmlns="http://www.w3.org/2000/svg">
<path d="M18.9016 6.83347V13.1668C18.9016 14.2038 18.3134 15.1668 17.3624 15.6946L11.5389 18.8705C10.5879 19.389 9.41142 19.389 8.45064 18.8705L2.62711 15.6946C1.67613 15.1761 1.08789 14.2131 1.08789 13.1668V6.83347C1.08789 5.79643 1.67613 4.83343 2.62711 4.30565L8.45064 1.12973C9.40162 0.611215 10.5781 0.611215 11.5389 1.12973L17.3624 4.30565C18.3134 4.83343 18.9016 5.78717 18.9016 6.83347Z" stroke="#FFB927" stroke-width="1.5" stroke-linecap="round" stroke-linejoin="round"/>
<path d="M10.0001 9.07407C11.2617 9.07407 12.2844 8.10815 12.2844 6.91664C12.2844 5.72514 11.2617 4.75928 10.0001 4.75928C8.73854 4.75928 7.71582 5.72514 7.71582 6.91664C7.71582 8.10815 8.73854 9.07407 10.0001 9.07407Z" stroke="#FFB927" stroke-width="1.5" stroke-linecap="round" stroke-linejoin="round"/>
<path d="M13.9213 14.3147C13.9213 12.6481 12.1664 11.2963 9.99969 11.2963C7.83303 11.2963 6.07812 12.6481 6.07812 14.3147" stroke="#FFB927" stroke-width="1.5" stroke-linecap="round" stroke-linejoin="round"/>
</svg>
