<svg width="75" height="75" viewBox="0 0 75 75" fill="none" xmlns="http://www.w3.org/2000/svg">
<g clip-path="url(#clip0_426_2415)">
<path d="M37.5205 0.020813C16.8101 0.020813 0.0205078 16.8101 0.0205078 37.5208C0.0205078 58.2315 16.8101 75.0208 37.5205 75.0208C58.2309 75.0208 75.0205 58.2315 75.0205 37.5208C75.0205 16.8101 58.2309 0.020813 37.5205 0.020813ZM50.4814 39.5086L31.7314 51.2274C31.3521 51.4642 30.9207 51.5833 30.4893 51.5833C30.0984 51.5833 29.707 51.486 29.3528 51.2892C28.6078 50.8761 28.1455 50.0921 28.1455 49.2396V25.8021C28.1455 24.9495 28.6078 24.1655 29.3528 23.7525C30.0979 23.337 31.0088 23.3622 31.7314 23.8143L50.4814 35.533C51.1664 35.9622 51.583 36.713 51.583 37.5208C51.583 38.3287 51.1664 39.0796 50.4814 39.5086Z" fill="#FFB927"/>
</g>
<defs>
<clipPath id="clip0_426_2415">
<rect width="75" height="75" fill="white"/>
</clipPath>
</defs>
</svg>
