<svg width="40" height="40" viewBox="0 0 40 40" fill="none" xmlns="http://www.w3.org/2000/svg">
<path d="M8.43512 33.4085L7.99428 34.0152L8.43512 33.4085ZM6.59152 31.5649L5.98476 32.0057L6.59152 31.5649ZM33.4085 31.5649L32.8017 31.124L33.4085 31.5649ZM31.5649 33.4085L31.124 32.8017L31.5649 33.4085ZM31.5649 6.59152L31.124 7.19829L31.5649 6.59152ZM33.4085 8.43512L32.8017 8.87596L33.4085 8.43512ZM8.43512 6.59152L8.87596 7.19829L8.43512 6.59152ZM6.59152 8.43512L7.19829 8.87596L6.59152 8.43512ZM8.33907 33.0542L7.58971 33.0233L7.58907 33.0387V33.0542H8.33907ZM31.6509 32.8708L32.4004 32.8452L32.4 32.8324L32.3991 32.8196L31.6509 32.8708ZM26.6667 15H25.9167C25.9167 18.2677 23.2677 20.9167 20 20.9167V21.6667V22.4167C24.0961 22.4167 27.4167 19.0961 27.4167 15H26.6667ZM20 21.6667V20.9167C16.7323 20.9167 14.0833 18.2677 14.0833 15H13.3333H12.5833C12.5833 19.0961 15.9039 22.4167 20 22.4167V21.6667ZM13.3333 15H14.0833C14.0833 11.7323 16.7323 9.08333 20 9.08333V8.33333V7.58333C15.9039 7.58333 12.5833 10.9039 12.5833 15H13.3333ZM20 8.33333V9.08333C23.2677 9.08333 25.9167 11.7323 25.9167 15H26.6667H27.4167C27.4167 10.9039 24.0961 7.58333 20 7.58333V8.33333ZM20 35V34.25C16.8585 34.25 14.5626 34.249 12.7762 34.0554C11.0038 33.8634 9.82207 33.4891 8.87596 32.8017L8.43512 33.4085L7.99428 34.0152C9.23872 34.9194 10.7146 35.3408 12.6146 35.5467C14.5006 35.751 16.8919 35.75 20 35.75V35ZM5 20H4.25C4.25 23.1081 4.24897 25.4994 4.4533 27.3853C4.65916 29.2854 5.08063 30.7613 5.98476 32.0057L6.59152 31.5649L7.19829 31.124C6.5109 30.1779 6.1366 28.9962 5.94458 27.2238C5.75103 25.4374 5.75 23.1415 5.75 20H5ZM35 20H34.25C34.25 23.1415 34.249 25.4374 34.0554 27.2238C33.8634 28.9962 33.4891 30.1779 32.8017 31.124L33.4085 31.5649L34.0152 32.0057C34.9194 30.7613 35.3408 29.2854 35.5467 27.3853C35.751 25.4994 35.75 23.1081 35.75 20H35ZM20 35V35.75C23.1081 35.75 25.4994 35.751 27.3853 35.5467C29.2854 35.3408 30.7613 34.9194 32.0057 34.0152L31.5649 33.4085L31.124 32.8017C30.1779 33.4891 28.9962 33.8634 27.2238 34.0554C25.4374 34.249 23.1415 34.25 20 34.25V35ZM20 5V5.75C23.1415 5.75 25.4374 5.75103 27.2238 5.94458C28.9962 6.1366 30.1779 6.5109 31.124 7.19829L31.5649 6.59152L32.0057 5.98476C30.7613 5.08063 29.2854 4.65916 27.3853 4.4533C25.4994 4.24897 23.1081 4.25 20 4.25V5ZM35 20H35.75C35.75 16.8919 35.751 14.5006 35.5467 12.6146C35.3408 10.7146 34.9194 9.23872 34.0152 7.99428L33.4085 8.43512L32.8017 8.87596C33.4891 9.82207 33.8634 11.0038 34.0554 12.7762C34.249 14.5626 34.25 16.8585 34.25 20H35ZM31.5649 6.59152L31.124 7.19829C31.7678 7.66603 32.334 8.23218 32.8017 8.87596L33.4085 8.43512L34.0152 7.99428C33.455 7.22316 32.7768 6.54502 32.0057 5.98476L31.5649 6.59152ZM20 5V4.25C16.8919 4.25 14.5006 4.24897 12.6146 4.4533C10.7146 4.65916 9.23872 5.08063 7.99428 5.98476L8.43512 6.59152L8.87596 7.19829C9.82207 6.5109 11.0038 6.1366 12.7762 5.94458C14.5626 5.75103 16.8585 5.75 20 5.75V5ZM5 20H5.75C5.75 16.8585 5.75103 14.5626 5.94458 12.7762C6.1366 11.0038 6.5109 9.82207 7.19829 8.87596L6.59152 8.43512L5.98476 7.99428C5.08063 9.23872 4.65916 10.7146 4.4533 12.6146C4.24897 14.5006 4.25 16.8919 4.25 20H5ZM8.43512 6.59152L7.99428 5.98476C7.22316 6.54502 6.54502 7.22316 5.98476 7.99428L6.59152 8.43512L7.19829 8.87596C7.66602 8.23218 8.23218 7.66602 8.87596 7.19829L8.43512 6.59152ZM15 26.6667V27.4167H25V26.6667V25.9167H15V26.6667ZM15 26.6667V25.9167C11.0077 25.9167 7.75253 29.0707 7.58971 33.0233L8.33907 33.0542L9.08844 33.085C9.21829 29.9328 11.8155 27.4167 15 27.4167V26.6667ZM8.43512 33.4085L8.87596 32.8017C8.84668 32.7804 8.81754 32.7589 8.78856 32.7372L8.33907 33.3376L7.88959 33.938C7.92428 33.964 7.95918 33.9897 7.99428 34.0152L8.43512 33.4085ZM8.33907 33.3376L8.78856 32.7372C8.18085 32.2823 7.64474 31.7385 7.19829 31.124L6.59152 31.5649L5.98476 32.0057C6.51952 32.7417 7.16168 33.3931 7.88959 33.938L8.33907 33.3376ZM8.33907 33.0542H7.58907V33.3376H8.33907H9.08907V33.0542H8.33907ZM25 26.6667V27.4167C28.1294 27.4167 30.6919 29.8466 30.9026 32.9221L31.6509 32.8708L32.3991 32.8196C32.1348 28.9627 28.9235 25.9167 25 25.9167V26.6667ZM33.4085 31.5649L32.8017 31.124C32.3565 31.7368 31.8222 32.2792 31.2167 32.7333L31.6667 33.3333L32.1167 33.9333C32.842 33.3893 33.482 32.7396 34.0152 32.0057L33.4085 31.5649ZM31.6667 33.3333L31.2167 32.7333C31.186 32.7564 31.1551 32.7792 31.124 32.8017L31.5649 33.4085L32.0057 34.0152C32.0429 33.9882 32.0799 33.9609 32.1167 33.9333L31.6667 33.3333ZM31.6509 32.8708L30.9013 32.8964L30.9171 33.3589L31.6667 33.3333L32.4162 33.3077L32.4004 32.8452L31.6509 32.8708Z" fill="#FFC357"/>
</svg>
