<svg width="50" height="50" viewBox="0 0 50 50" fill="none" xmlns="http://www.w3.org/2000/svg">
<path d="M21.875 45.8333V41.6666M30.2083 45.8333V41.6666" stroke="#FFC357" stroke-width="2" stroke-linecap="round"/>
<path d="M4.16663 23.4375C4.16663 17.3969 8.36396 12.5 13.5416 12.5C18.7193 12.5 22.9166 17.3969 22.9166 23.4375V41.6667H8.81779C6.24902 41.6667 4.16663 39.2372 4.16663 36.2403V23.4375Z" fill="#FFB927" fill-opacity="0.1"/>
<path d="M22.9166 41.6667V42.6667H23.9166V41.6667H22.9166ZM29.1666 40.6667C28.6143 40.6667 28.1666 41.1144 28.1666 41.6667C28.1666 42.219 28.6143 42.6667 29.1666 42.6667V40.6667ZM36.4583 11.5C35.906 11.5 35.4583 11.9477 35.4583 12.5C35.4583 13.0523 35.906 13.5 36.4583 13.5V11.5ZM14.5833 11.5C14.031 11.5 13.5833 11.9477 13.5833 12.5C13.5833 13.0523 14.031 13.5 14.5833 13.5V11.5ZM18.75 40.6667C18.1977 40.6667 17.75 41.1144 17.75 41.6667C17.75 42.219 18.1977 42.6667 18.75 42.6667V40.6667ZM31.25 42.6667C31.8022 42.6667 32.25 42.219 32.25 41.6667C32.25 41.1144 31.8022 40.6667 31.25 40.6667V42.6667ZM22.9166 23.4375H21.9166V41.6667H22.9166H23.9166V23.4375H22.9166ZM22.9166 41.6667V40.6667H8.81779V41.6667V42.6667H22.9166V41.6667ZM4.16663 36.2403H5.16663V23.4375H4.16663H3.16663V36.2403H4.16663ZM8.81779 41.6667V40.6667C6.94037 40.6667 5.16663 38.8351 5.16663 36.2403H4.16663H3.16663C3.16663 39.6393 5.55767 42.6667 8.81779 42.6667V41.6667ZM13.5416 12.5V13.5C18.0279 13.5 21.9166 17.799 21.9166 23.4375H22.9166H23.9166C23.9166 16.9948 19.4106 11.5 13.5416 11.5V12.5ZM13.5416 12.5V11.5C7.67261 11.5 3.16663 16.9948 3.16663 23.4375H4.16663H5.16663C5.16663 17.799 9.05531 13.5 13.5416 13.5V12.5ZM45.8333 23.4375H44.8333V36.3027H45.8333H46.8333V23.4375H45.8333ZM41.2356 41.6667V40.6667H29.1666V41.6667V42.6667H41.2356V41.6667ZM45.8333 36.3027H44.8333C44.8333 38.863 43.0835 40.6667 41.2356 40.6667V41.6667V42.6667C44.4662 42.6667 46.8333 39.6672 46.8333 36.3027H45.8333ZM45.8333 23.4375H46.8333C46.8333 16.9948 42.3273 11.5 36.4583 11.5V12.5V13.5C40.9446 13.5 44.8333 17.799 44.8333 23.4375H45.8333ZM14.5833 12.5V13.5H37.5V12.5V11.5H14.5833V12.5ZM18.75 41.6667V42.6667H31.25V41.6667V40.6667H18.75V41.6667Z" fill="#FFC357"/>
<path d="M10.4166 33.3333H16.6666" stroke="#FFC357" stroke-width="2" stroke-linecap="round"/>
<path d="M33.3334 20.5924V11.2734M33.3334 11.2734V5.49005C33.3334 4.9981 33.6825 4.57534 34.1655 4.48226L35.1782 4.28713C36.4038 4.05097 37.6711 4.16373 38.8358 4.61257L39.0007 4.67613C40.1554 5.12112 41.4182 5.20426 42.6212 4.91449C43.1966 4.77591 43.75 5.21191 43.75 5.80369V10.4318C43.75 10.9255 43.4118 11.3549 42.9318 11.4705L42.7931 11.5039C41.4781 11.8206 40.0979 11.7298 38.8358 11.2434C37.6711 10.7946 36.4038 10.6818 35.1782 10.918L33.3334 11.2734Z" stroke="#FFC357" stroke-width="2" stroke-linecap="round"/>
</svg>
