<svg width="70" height="70" viewBox="0 0 70 70" fill="none" xmlns="http://www.w3.org/2000/svg">
<path d="M7.29169 38.6167V33.5709C7.29169 27.5334 12.2208 22.6042 18.2583 22.6042H51.7417C57.7792 22.6042 62.7084 27.5334 62.7084 33.5709V37.771H56.8167C55.1833 37.771 53.6958 38.4125 52.6167 39.5209C51.3917 40.7167 50.6917 42.4376 50.8667 44.2751C51.1292 47.4251 54.0167 49.7292 57.1667 49.7292H62.7084V53.2001C62.7084 59.2376 57.7792 64.1667 51.7417 64.1667H35.7583" stroke="#FFB927" stroke-width="3" stroke-linecap="round" stroke-linejoin="round"/>
<path d="M7.29169 36.1958V22.8668C7.29169 19.396 9.42084 16.3042 12.6583 15.0792L35.8167 6.32916C39.4334 4.95833 43.3125 7.64174 43.3125 11.5209V22.6042" stroke="#FFB927" stroke-width="3" stroke-linecap="round" stroke-linejoin="round"/>
<path d="M65.7965 40.7464V46.7549C65.7965 48.359 64.5132 49.6714 62.8799 49.7297H57.1632C54.0132 49.7297 51.1257 47.4256 50.8632 44.2756C50.6882 42.4381 51.3882 40.7172 52.6132 39.5214C53.6924 38.4131 55.1799 37.7715 56.8132 37.7715H62.8799C64.5132 37.8298 65.7965 39.1422 65.7965 40.7464Z" stroke="#FFB927" stroke-width="3" stroke-linecap="round" stroke-linejoin="round"/>
<path d="M20.4167 35H40.8334" stroke="#FFB927" stroke-width="3" stroke-linecap="round" stroke-linejoin="round"/>
<path d="M8.75 48.125H24.325C26.1917 48.125 27.7083 49.6416 27.7083 51.5083V55.2417" stroke="#FFB927" stroke-width="3" stroke-miterlimit="10" stroke-linecap="round" stroke-linejoin="round"/>
<path d="M12.3083 44.5667L8.75 48.1249L12.3083 51.6831" stroke="#FFB927" stroke-width="3" stroke-miterlimit="10" stroke-linecap="round" stroke-linejoin="round"/>
<path d="M27.7083 63.5249H12.1333C10.2667 63.5249 8.75 62.0081 8.75 60.1414V56.4082" stroke="#FFB927" stroke-width="3" stroke-miterlimit="10" stroke-linecap="round" stroke-linejoin="round"/>
<path d="M24.1536 67.0842L27.712 63.526L24.1536 59.9675" stroke="#FFB927" stroke-width="3" stroke-miterlimit="10" stroke-linecap="round" stroke-linejoin="round"/>
</svg>
