<svg width="20" height="20" viewBox="0 0 20 20" fill="none" xmlns="http://www.w3.org/2000/svg">
<path d="M2.5 18.333H17.5" stroke="#FFC357" stroke-linecap="round" stroke-linejoin="round"/>
<path d="M2.5 9.16667C2.5 8.38099 2.5 7.98816 2.74408 7.74408C2.98816 7.5 3.38099 7.5 4.16667 7.5C4.95234 7.5 5.34518 7.5 5.58926 7.74408C5.83333 7.98816 5.83333 8.38099 5.83333 9.16667V14.1667C5.83333 14.9523 5.83333 15.3452 5.58926 15.5893C5.34518 15.8333 4.95234 15.8333 4.16667 15.8333C3.38099 15.8333 2.98816 15.8333 2.74408 15.5893C2.5 15.3452 2.5 14.9523 2.5 14.1667V9.16667Z" stroke="#FFC357"/>
<path d="M8.33398 5.83366C8.33398 5.04798 8.33398 4.65515 8.57806 4.41107C8.82214 4.16699 9.21498 4.16699 10.0007 4.16699C10.7863 4.16699 11.1792 4.16699 11.4232 4.41107C11.6673 4.65515 11.6673 5.04798 11.6673 5.83366V14.167C11.6673 14.9527 11.6673 15.3455 11.4232 15.5896C11.1792 15.8337 10.7863 15.8337 10.0007 15.8337C9.21498 15.8337 8.82214 15.8337 8.57806 15.5896C8.33398 15.3455 8.33398 14.9527 8.33398 14.167V5.83366Z" stroke="#FFC357"/>
<path d="M14.166 3.33366C14.166 2.54798 14.166 2.15515 14.4101 1.91107C14.6542 1.66699 15.047 1.66699 15.8327 1.66699C16.6184 1.66699 17.0112 1.66699 17.2553 1.91107C17.4993 2.15515 17.4993 2.54798 17.4993 3.33366V14.167C17.4993 14.9527 17.4993 15.3455 17.2553 15.5896C17.0112 15.8337 16.6184 15.8337 15.8327 15.8337C15.047 15.8337 14.6542 15.8337 14.4101 15.5896C14.166 15.3455 14.166 14.9527 14.166 14.167V3.33366Z" stroke="#FFC357"/>
</svg>
