<svg width="20" height="20" viewBox="0 0 20 20" fill="none" xmlns="http://www.w3.org/2000/svg">
<path d="M4.97312 1.52908C5.24266 1.31345 5.28636 0.920143 5.07073 0.650604C4.85509 0.381066 4.46179 0.337365 4.19225 0.552996L2.10891 2.21966C1.83938 2.43529 1.79567 2.8286 2.01131 3.09814C2.22694 3.36768 2.62024 3.41138 2.88978 3.19575L4.97312 1.52908Z" fill="#FFB927"/>
<path d="M15.8064 0.552996C15.5369 0.337365 15.1436 0.381066 14.928 0.650604C14.7123 0.920143 14.756 1.31345 15.0256 1.52908L17.1089 3.19575C17.3785 3.41138 17.7718 3.36768 17.9874 3.09814C18.203 2.8286 18.1593 2.43529 17.8898 2.21966L15.8064 0.552996Z" fill="#FFB927"/>
<path d="M10.6244 6.87437C10.6244 6.52919 10.3445 6.24937 9.99935 6.24937C9.65417 6.24937 9.37435 6.52919 9.37435 6.87437V10.3792C9.37435 10.6449 9.27285 10.9005 9.09061 11.0938L7.87793 12.3801C7.64114 12.6312 7.65278 13.0268 7.90394 13.2636C8.15509 13.5004 8.55065 13.4887 8.78744 13.2376L10.0001 11.9513C10.401 11.5261 10.6244 10.9637 10.6244 10.3792V6.87437Z" fill="#FFB927"/>
<path fill-rule="evenodd" clip-rule="evenodd" d="M9.99935 1.24937C5.0518 1.24937 1.04102 5.26015 1.04102 10.2077C1.04102 15.1553 5.0518 19.166 9.99935 19.166C14.9469 19.166 18.9577 15.1553 18.9577 10.2077C18.9577 5.26015 14.9469 1.24937 9.99935 1.24937ZM2.29102 10.2077C2.29102 5.95051 5.74215 2.49937 9.99935 2.49937C14.2565 2.49937 17.7077 5.95051 17.7077 10.2077C17.7077 14.4649 14.2565 17.916 9.99935 17.916C5.74215 17.916 2.29102 14.4649 2.29102 10.2077Z" fill="#FFB927"/>
</svg>
