<svg width="25" height="24" viewBox="0 0 25 24" fill="none" xmlns="http://www.w3.org/2000/svg">
<g clip-path="url(#clip0_262_375)">
<path d="M0.683594 15.9985H24.6836V24.0001H0.683594V15.9985Z" fill="#1EB53A"/>
<path d="M0.683594 0H24.6836V8.00156H0.683594V0Z" fill="#0099B5"/>
<path d="M0.683594 7.67819H24.6836V16.3219H0.683594V7.67819Z" fill="#CE1126"/>
<path d="M0.683594 8.15625H24.6836V15.8438H0.683594V8.15625Z" fill="white"/>
<path d="M8.83984 6.75C10.0825 6.75 11.0898 5.75313 11.0898 4.52344C11.0898 3.29374 10.0825 2.29688 8.83984 2.29688C7.5972 2.29688 6.58984 3.29374 6.58984 4.52344C6.58984 5.75313 7.5972 6.75 8.83984 6.75Z" fill="white"/>
<path d="M9.58984 6.75C10.8325 6.75 11.8398 5.75313 11.8398 4.52344C11.8398 3.29374 10.8325 2.29688 9.58984 2.29688C8.3472 2.29688 7.33984 3.29374 7.33984 4.52344C7.33984 5.75313 8.3472 6.75 9.58984 6.75Z" fill="#0099B5"/>
<path d="M13.761 5.87692L13.6193 6.302L13.8355 6.37657" fill="white"/>
<path d="M13.7611 5.87692L13.9028 6.302L13.6866 6.37657" fill="white"/>
<path d="M14.1873 6.18627L13.7393 6.18287L13.7352 6.41159" fill="white"/>
<path d="M14.1874 6.18632L13.8269 6.45243L13.6892 6.26979" fill="white"/>
<path d="M13.3364 6.18543L13.6969 6.45155L13.8346 6.26891" fill="white"/>
<path d="M13.3366 6.18542L13.7846 6.18201L13.7887 6.41074" fill="white"/>
<path d="M14.0245 6.68558L13.8893 6.2584L13.6705 6.32519" fill="white"/>
<path d="M14.0245 6.68555L13.6601 6.42494L13.7912 6.23749" fill="white"/>
<path d="M13.4979 6.68545L13.8624 6.42485L13.7313 6.2374" fill="white"/>
<path d="M13.4979 6.68549L13.6332 6.25831L13.8519 6.3251" fill="white"/>
<path d="M13.761 4.08752L13.6193 4.5126L13.8355 4.58717" fill="white"/>
<path d="M13.7611 4.08752L13.9028 4.5126L13.6866 4.58717" fill="white"/>
<path d="M14.1873 4.39675L13.7393 4.39335L13.7352 4.62207" fill="white"/>
<path d="M14.1874 4.39677L13.8269 4.66288L13.6892 4.48024" fill="white"/>
<path d="M13.3364 4.39591L13.6969 4.66203L13.8346 4.47939" fill="white"/>
<path d="M13.3366 4.3959L13.7846 4.39249L13.7887 4.62122" fill="white"/>
<path d="M14.024 4.89578L13.8888 4.46861L13.67 4.53539" fill="white"/>
<path d="M14.0242 4.89575L13.6597 4.63514L13.7908 4.44769" fill="white"/>
<path d="M13.4978 4.89654L13.8623 4.63594L13.7312 4.44849" fill="white"/>
<path d="M13.4977 4.89661L13.6329 4.46943L13.8517 4.53622" fill="white"/>
<path d="M13.7608 2.29688L13.6191 2.72195L13.8354 2.79652" fill="white"/>
<path d="M13.761 2.29688L13.9027 2.72195L13.6864 2.79652" fill="white"/>
<path d="M14.1872 2.60607L13.7392 2.60267L13.7351 2.83139" fill="white"/>
<path d="M14.1873 2.60606L13.8268 2.87217L13.6891 2.68953" fill="white"/>
<path d="M13.3363 2.6056L13.6968 2.87171L13.8345 2.68908" fill="white"/>
<path d="M13.3365 2.60558L13.7845 2.60218L13.7886 2.83091" fill="white"/>
<path d="M14.0239 3.10562L13.8887 2.67845L13.6699 2.74523" fill="white"/>
<path d="M14.0241 3.10556L13.6596 2.84495L13.7907 2.6575" fill="white"/>
<path d="M13.4977 3.10617L13.8622 2.84556L13.731 2.65811" fill="white"/>
<path d="M13.4976 3.10626L13.6328 2.67909L13.8516 2.74587" fill="white"/>
<path d="M15.551 5.87692L15.4093 6.302L15.6256 6.37657" fill="white"/>
<path d="M15.5512 5.87692L15.6929 6.302L15.4766 6.37657" fill="white"/>
<path d="M15.9764 6.18627L15.5283 6.18287L15.5243 6.41159" fill="white"/>
<path d="M15.9765 6.18632L15.616 6.45243L15.4782 6.26979" fill="white"/>
<path d="M15.1247 6.18543L15.4852 6.45155L15.623 6.26891" fill="white"/>
<path d="M15.1248 6.18542L15.5728 6.18201L15.5769 6.41074" fill="white"/>
<path d="M15.8131 6.68561L15.6779 6.25843L15.4591 6.32522" fill="white"/>
<path d="M15.8131 6.68558L15.4486 6.42497L15.5798 6.23752" fill="white"/>
<path d="M15.2873 6.68548L15.6518 6.42488L15.5207 6.23743" fill="white"/>
<path d="M15.2874 6.68552L15.4226 6.25834L15.6414 6.32513" fill="white"/>
<path d="M15.551 4.08752L15.4093 4.5126L15.6256 4.58717" fill="white"/>
<path d="M15.5512 4.08752L15.6929 4.5126L15.4766 4.58717" fill="white"/>
<path d="M15.9764 4.39675L15.5283 4.39335L15.5243 4.62207" fill="white"/>
<path d="M15.9765 4.39677L15.616 4.66288L15.4782 4.48024" fill="white"/>
<path d="M15.1247 4.39591L15.4852 4.66203L15.623 4.47939" fill="white"/>
<path d="M15.1248 4.3959L15.5728 4.39249L15.5769 4.62122" fill="white"/>
<path d="M15.8131 4.89578L15.6779 4.46861L15.4591 4.53539" fill="white"/>
<path d="M15.8131 4.89575L15.4486 4.63514L15.5798 4.44769" fill="white"/>
<path d="M15.2873 4.89657L15.6518 4.63597L15.5207 4.44852" fill="white"/>
<path d="M15.2874 4.89661L15.4226 4.46943L15.6414 4.53622" fill="white"/>
<path d="M15.551 2.29688L15.4093 2.72195L15.6256 2.79652" fill="white"/>
<path d="M15.5512 2.29688L15.6929 2.72195L15.4766 2.79652" fill="white"/>
<path d="M15.9764 2.60607L15.5283 2.60267L15.5243 2.83139" fill="white"/>
<path d="M15.9765 2.60606L15.616 2.87217L15.4782 2.68953" fill="white"/>
<path d="M15.1247 2.60563L15.4852 2.87174L15.623 2.68911" fill="white"/>
<path d="M15.1248 2.60561L15.5728 2.60221L15.5769 2.83094" fill="white"/>
<path d="M15.8131 3.10562L15.6779 2.67845L15.4591 2.74523" fill="white"/>
<path d="M15.8131 3.10556L15.4486 2.84495L15.5798 2.6575" fill="white"/>
<path d="M15.2873 3.10623L15.6518 2.84562L15.5207 2.65817" fill="white"/>
<path d="M15.2874 3.10626L15.4226 2.67909L15.6414 2.74587" fill="white"/>
<path d="M17.3392 5.87686L17.1975 6.30194L17.4138 6.37651" fill="white"/>
<path d="M17.3394 5.87689L17.4811 6.30197L17.2648 6.37654" fill="white"/>
<path d="M17.7656 6.1863L17.3175 6.1829L17.3134 6.41163" fill="white"/>
<path d="M17.7657 6.18632L17.4052 6.45243L17.2674 6.26979" fill="white"/>
<path d="M16.9132 6.18543L17.2737 6.45155L17.4114 6.26891" fill="white"/>
<path d="M16.9132 6.18542L17.3613 6.18201L17.3654 6.41074" fill="white"/>
<path d="M17.6028 6.68561L17.4676 6.25843L17.2488 6.32522" fill="white"/>
<path d="M17.6028 6.68558L17.2383 6.42497L17.3694 6.23752" fill="white"/>
<path d="M17.0762 6.68539L17.4406 6.42478L17.3095 6.23734" fill="white"/>
<path d="M17.0762 6.68549L17.2114 6.25831L17.4302 6.3251" fill="white"/>
<path d="M17.3392 4.08759L17.1975 4.51266L17.4138 4.58723" fill="white"/>
<path d="M17.3394 4.08755L17.4811 4.51263L17.2648 4.5872" fill="white"/>
<path d="M17.7656 4.39678L17.3175 4.39338L17.3134 4.62211" fill="white"/>
<path d="M17.7657 4.3968L17.4052 4.66291L17.2674 4.48027" fill="white"/>
<path d="M16.9132 4.39591L17.2737 4.66203L17.4114 4.47939" fill="white"/>
<path d="M16.9132 4.3959L17.3613 4.39249L17.3654 4.62122" fill="white"/>
<path d="M17.6028 4.89581L17.4676 4.46864L17.2488 4.53542" fill="white"/>
<path d="M17.6028 4.89578L17.2383 4.63517L17.3694 4.44772" fill="white"/>
<path d="M17.0762 4.89654L17.4406 4.63594L17.3095 4.44849" fill="white"/>
<path d="M17.0762 4.89661L17.2114 4.46943L17.4302 4.53622" fill="white"/>
<path d="M17.3392 2.29688L17.1975 2.72195L17.4138 2.79652" fill="white"/>
<path d="M17.3394 2.29688L17.4811 2.72195L17.2648 2.79652" fill="white"/>
<path d="M17.7656 2.60604L17.3175 2.60264L17.3134 2.83136" fill="white"/>
<path d="M17.7657 2.60606L17.4052 2.87217L17.2674 2.68953" fill="white"/>
<path d="M16.9132 2.6056L17.2737 2.87171L17.4114 2.68907" fill="white"/>
<path d="M16.9132 2.60558L17.3613 2.60218L17.3654 2.83091" fill="white"/>
<path d="M17.6028 3.10559L17.4676 2.67842L17.2488 2.7452" fill="white"/>
<path d="M17.6028 3.10556L17.2383 2.84495L17.3694 2.6575" fill="white"/>
<path d="M17.0762 3.10617L17.4406 2.84556L17.3095 2.65811" fill="white"/>
<path d="M17.0762 3.10626L17.2114 2.67909L17.4302 2.74587" fill="white"/>
<path d="M10.1808 5.87692L10.0391 6.302L10.2553 6.37657" fill="white"/>
<path d="M10.1809 5.87692L10.3226 6.302L10.1064 6.37657" fill="white"/>
<path d="M10.6067 6.18627L10.1586 6.18287L10.1545 6.41159" fill="white"/>
<path d="M10.6066 6.18632L10.2461 6.45243L10.1084 6.26979" fill="white"/>
<path d="M9.7557 6.18543L10.1162 6.45155L10.2539 6.26891" fill="white"/>
<path d="M9.75565 6.18542L10.2037 6.18201L10.2078 6.41074" fill="white"/>
<path d="M10.4434 6.68561L10.3081 6.25843L10.0893 6.32522" fill="white"/>
<path d="M10.4432 6.68558L10.0788 6.42497L10.2099 6.23752" fill="white"/>
<path d="M9.91711 6.68548L10.2816 6.42488L10.1505 6.23743" fill="white"/>
<path d="M9.91712 6.68552L10.0523 6.25834L10.2711 6.32513" fill="white"/>
<path d="M11.9715 5.87692L11.8298 6.302L12.0461 6.37657" fill="white"/>
<path d="M11.9717 5.87692L12.1134 6.302L11.8971 6.37657" fill="white"/>
<path d="M12.3969 6.18627L11.9489 6.18287L11.9448 6.41159" fill="white"/>
<path d="M12.397 6.18632L12.0365 6.45243L11.8988 6.26979" fill="white"/>
<path d="M11.546 6.18543L11.9065 6.45155L12.0442 6.26891" fill="white"/>
<path d="M11.5461 6.18542L11.9941 6.18201L11.9982 6.41074" fill="white"/>
<path d="M12.2336 6.68558L12.0984 6.2584L11.8796 6.32519" fill="white"/>
<path d="M12.2336 6.68555L11.8692 6.42494L12.0003 6.23749" fill="white"/>
<path d="M11.7079 6.68545L12.0724 6.42485L11.9412 6.2374" fill="white"/>
<path d="M11.7079 6.68549L11.8431 6.25831L12.0619 6.3251" fill="white"/>
<path d="M11.9715 4.08752L11.8298 4.5126L12.0461 4.58717" fill="white"/>
<path d="M11.9717 4.08752L12.1134 4.5126L11.8971 4.58717" fill="white"/>
<path d="M12.3969 4.39675L11.9489 4.39335L11.9448 4.62207" fill="white"/>
<path d="M12.397 4.39677L12.0365 4.66288L11.8988 4.48024" fill="white"/>
<path d="M11.546 4.39591L11.9065 4.66203L12.0442 4.47939" fill="white"/>
<path d="M11.5461 4.3959L11.9941 4.39249L11.9982 4.62122" fill="white"/>
<path d="M12.2336 4.89578L12.0984 4.46861L11.8796 4.53539" fill="white"/>
<path d="M12.2336 4.89575L11.8692 4.63514L12.0003 4.44769" fill="white"/>
<path d="M11.7079 4.89657L12.0724 4.63597L11.9412 4.44852" fill="white"/>
<path d="M11.7079 4.89661L11.8431 4.46943L12.0619 4.53622" fill="white"/>
</g>
<rect x="1.18359" y="0.5" width="23" height="23" rx="11.5" stroke="#0072FF"/>
<defs>
<clipPath id="clip0_262_375">
<rect x="0.683594" width="24" height="24" rx="12" fill="white"/>
</clipPath>
</defs>
</svg>
