<svg width="61" height="60" viewBox="0 0 61 60" fill="none" xmlns="http://www.w3.org/2000/svg">
<path d="M20.4502 30L26.4752 36.05L38.5502 23.95" stroke="#FFC357" stroke-width="3" stroke-linecap="round" stroke-linejoin="round"/>
<path d="M26.3752 6.12505C28.1002 4.65005 30.9252 4.65005 32.6752 6.12505L36.6252 9.52505C37.3752 10.175 38.7752 10.7 39.7752 10.7H44.0252C46.6752 10.7 48.8502 12.875 48.8502 15.525V19.775C48.8502 20.75 49.3752 22.175 50.0252 22.925L53.4252 26.875C54.9002 28.6 54.9002 31.4251 53.4252 33.1751L50.0252 37.1251C49.3752 37.8751 48.8502 39.2751 48.8502 40.2751V44.525C48.8502 47.175 46.6752 49.35 44.0252 49.35H39.7752C38.8002 49.35 37.3752 49.875 36.6252 50.525L32.6752 53.925C30.9502 55.4 28.1252 55.4 26.3752 53.925L22.4252 50.525C21.6752 49.875 20.2752 49.35 19.2752 49.35H14.9502C12.3002 49.35 10.1252 47.175 10.1252 44.525V40.2501C10.1252 39.2751 9.60019 37.8751 8.97519 37.1251L5.6002 33.1501C4.1502 31.4251 4.1502 28.6251 5.6002 26.9001L8.97519 22.925C9.60019 22.175 10.1252 20.775 10.1252 19.8V15.5C10.1252 12.85 12.3002 10.675 14.9502 10.675H19.2752C20.2502 10.675 21.6752 10.15 22.4252 9.50005L26.3752 6.12505Z" stroke="#FFC357" stroke-width="3" stroke-linecap="round" stroke-linejoin="round"/>
</svg>
