<svg width="19" height="20" viewBox="0 0 19 20" fill="none" xmlns="http://www.w3.org/2000/svg">
<path d="M2.9523 18.2772L3.2928 17.609H3.2928L2.9523 18.2772ZM1.22245 16.5474L1.8907 16.2069H1.8907L1.22245 16.5474ZM16.0464 1.72342L15.7059 2.39168V2.39168L16.0464 1.72342ZM17.7762 3.45328L17.108 3.79377V3.79377L17.7762 3.45328ZM2.9523 1.72342L3.2928 2.39168L2.9523 1.72342ZM1.22245 3.45328L1.8907 3.79377L1.22245 3.45328ZM17.4577 10.0003C17.4577 10.4145 17.7935 10.7503 18.2077 10.7503C18.6219 10.7503 18.9577 10.4145 18.9577 10.0003H17.4577ZM9.49935 19.4587C9.91356 19.4587 10.2493 19.1229 10.2493 18.7087C10.2493 18.2944 9.91356 17.9587 9.49935 17.9587V19.4587ZM0.791016 6.08366C0.376802 6.08366 0.0410156 6.41945 0.0410156 6.83366C0.0410156 7.24787 0.376802 7.58366 0.791016 7.58366V6.08366ZM18.2077 7.58366C18.6219 7.58366 18.9577 7.24787 18.9577 6.83366C18.9577 6.41945 18.6219 6.08366 18.2077 6.08366V7.58366ZM17.6774 19.239C17.9702 19.5319 18.4451 19.5319 18.738 19.239C19.0309 18.9461 19.0309 18.4712 18.738 18.1783L17.6774 19.239ZM4.70768 4.45866C4.70768 4.04445 4.3719 3.70866 3.95768 3.70866C3.54347 3.70866 3.20768 4.04445 3.20768 4.45866H4.70768ZM3.20768 4.46658C3.20768 4.88079 3.54347 5.21658 3.95768 5.21658C4.3719 5.21658 4.70768 4.88079 4.70768 4.46658H3.20768ZM7.08268 4.45866C7.08268 4.04445 6.7469 3.70866 6.33268 3.70866C5.91847 3.70866 5.58268 4.04445 5.58268 4.45866H7.08268ZM5.58268 4.46658C5.58268 4.88079 5.91847 5.21658 6.33268 5.21658C6.7469 5.21658 7.08268 4.88079 7.08268 4.46658H5.58268ZM9.45768 4.45866C9.45768 4.04445 9.1219 3.70866 8.70768 3.70866C8.29347 3.70866 7.95768 4.04445 7.95768 4.45866H9.45768ZM7.95768 4.46658C7.95768 4.88079 8.29347 5.21658 8.70768 5.21658C9.1219 5.21658 9.45768 4.88079 9.45768 4.46658H7.95768ZM7.12435 1.29199V2.04199H11.8743V1.29199V0.541992H7.12435V1.29199ZM0.791016 12.3753H1.54102V7.62533H0.791016H0.0410156V12.3753H0.791016ZM7.12435 18.7087V17.9587C6.00354 17.9587 5.20803 17.9581 4.5856 17.9072C3.97192 17.8571 3.59281 17.7618 3.2928 17.609L2.9523 18.2772L2.61181 18.9455C3.15853 19.224 3.75701 19.3445 4.46345 19.4022C5.16113 19.4592 6.02829 19.4587 7.12435 19.4587V18.7087ZM0.791016 12.3753H0.0410156C0.0410156 13.4714 0.0404323 14.3385 0.0974355 15.0362C0.155154 15.7427 0.275627 16.3411 0.554193 16.8879L1.22245 16.5474L1.8907 16.2069C1.73784 15.9069 1.64259 15.5278 1.59245 14.9141C1.5416 14.2916 1.54102 13.4961 1.54102 12.3753H0.791016ZM2.9523 18.2772L3.2928 17.609C2.68911 17.3014 2.1983 16.8106 1.8907 16.2069L1.22245 16.5474L0.554193 16.8879C1.0056 17.7738 1.72588 18.4941 2.61181 18.9455L2.9523 18.2772ZM11.8743 1.29199V2.04199C12.9952 2.04199 13.7907 2.04258 14.4131 2.09343C15.0268 2.14357 15.4059 2.23881 15.7059 2.39168L16.0464 1.72342L16.3869 1.05517C15.8402 0.776603 15.2417 0.656131 14.5352 0.598412C13.8376 0.541409 12.9704 0.541992 11.8743 0.541992V1.29199ZM18.2077 7.62533H18.9577C18.9577 6.52926 18.9583 5.66211 18.9013 4.96443C18.8435 4.25798 18.7231 3.6595 18.4445 3.11279L17.7762 3.45328L17.108 3.79377C17.2609 4.09379 17.3561 4.47289 17.4062 5.08657C17.4571 5.70901 17.4577 6.50451 17.4577 7.62533H18.2077ZM16.0464 1.72342L15.7059 2.39168C16.3096 2.69927 16.8004 3.19009 17.108 3.79377L17.7762 3.45328L18.4445 3.11279C17.9931 2.22686 17.2728 1.50657 16.3869 1.05517L16.0464 1.72342ZM7.12435 1.29199V0.541992C6.02829 0.541992 5.16113 0.541409 4.46345 0.598412C3.75701 0.656131 3.15853 0.776603 2.61181 1.05517L2.9523 1.72342L3.2928 2.39168C3.59281 2.23881 3.97192 2.14357 4.5856 2.09343C5.20803 2.04258 6.00354 2.04199 7.12435 2.04199V1.29199ZM0.791016 7.62533H1.54102C1.54102 6.50451 1.5416 5.70901 1.59245 5.08657C1.64259 4.47289 1.73784 4.09379 1.8907 3.79377L1.22245 3.45328L0.554193 3.11279C0.275627 3.6595 0.155154 4.25798 0.0974355 4.96443C0.0404323 5.66211 0.0410156 6.52926 0.0410156 7.62533H0.791016ZM2.9523 1.72342L2.61181 1.05517C1.72588 1.50657 1.0056 2.22686 0.554193 3.11279L1.22245 3.45328L1.8907 3.79377C2.1983 3.19009 2.68911 2.69927 3.2928 2.39168L2.9523 1.72342ZM18.2077 7.62533H17.4577V10.0003H18.2077H18.9577V7.62533H18.2077ZM9.49935 18.7087V17.9587H7.12435V18.7087V19.4587H9.49935V18.7087ZM0.791016 6.83366V7.58366H18.2077V6.83366V6.08366H0.791016V6.83366ZM16.6709 13.5861H15.9209C15.9209 15.1523 14.6513 16.4219 13.0851 16.4219V17.1719V17.9219C15.4797 17.9219 17.4209 15.9807 17.4209 13.5861H16.6709ZM13.0851 17.1719V16.4219C11.519 16.4219 10.2493 15.1523 10.2493 13.5861H9.49935H8.74935C8.74935 15.9807 10.6905 17.9219 13.0851 17.9219V17.1719ZM9.49935 13.5861H10.2493C10.2493 12.0199 11.519 10.7503 13.0851 10.7503V10.0003V9.25033C10.6905 9.25033 8.74935 11.1915 8.74935 13.5861H9.49935ZM13.0851 10.0003V10.7503C14.6513 10.7503 15.9209 12.0199 15.9209 13.5861H16.6709H17.4209C17.4209 11.1915 15.4797 9.25033 13.0851 9.25033V10.0003ZM15.6464 16.1474L15.1161 16.6777L17.6774 19.239L18.2077 18.7087L18.738 18.1783L16.1767 15.6171L15.6464 16.1474ZM3.95768 4.45866H3.20768V4.46658H3.95768H4.70768V4.45866H3.95768ZM6.33268 4.45866H5.58268V4.46658H6.33268H7.08268V4.45866H6.33268ZM8.70768 4.45866H7.95768V4.46658H8.70768H9.45768V4.45866H8.70768Z" fill="#FFC357"/>
</svg>
